<svg xmlns="http://www.w3.org/2000/svg" version="1.1" xmlns:xlink="http://www.w3.org/1999/xlink" xmlns:svgjs="http://svgjs.dev/svgjs" width="1440" height="560" preserveAspectRatio="none" viewBox="0 0 1440 560">
    <g mask="url(&quot;#SvgjsMask1000&quot;)" fill="none">
        <rect width="1440" height="560" x="0" y="0" fill="#0e2a47"></rect>
        <path d="M 0,210 C 57.6,185.6 172.8,82.8 288,88 C 403.2,93.2 460.8,237.2 576,236 C 691.2,234.8 748.8,87.4 864,82 C 979.2,76.6 1036.8,210 1152,209 C 1267.2,208 1382.4,103.4 1440,77L1440 560L0 560z" fill="#184a7e"></path>
        <path d="M 0,404 C 96,421 288,496.4 480,489 C 672,481.6 768,353 960,367 C 1152,381 1344,520.6 1440,559L1440 560L0 560z" fill="#2264ab"></path>
    </g>
    <defs>
        <mask id="SvgjsMask1000">
            <rect width="1440" height="560" fill="#ffffff"></rect>
        </mask>
    </defs>
</svg>